<svg xmlns="http://www.w3.org/2000/svg" width="500" height="381" xmlns:v="https://vecta.io/nano"><defs><linearGradient x1="95.0481519%" y1="1.6340039%" x2="7.05015945%" y2="98.5947223%" id="A"><stop stop-color="#d9d9d9" offset="0%"/><stop stop-color="#a6a6a6" offset="100%"/></linearGradient></defs><path d="M168 121.538v132.474H43.778l-26.854-92.566c-.806-2.777.793-5.681 3.57-6.487.474-.138.965-.207 1.459-.207h15.092c1.648 0 3.199.776 4.188 2.094l27.225 36.293H99.85l-12.185-81.029c-.43-2.859 1.539-5.526 4.399-5.956.258-.039.518-.058.779-.058h13.145v-.988c0-2.892 2.344-5.236 5.236-5.236h31.927c2.892 0 5.236 2.344 5.236 5.236v.988h11.815c2.426 0 4.535 1.667 5.095 4.028L168 121.538zm157 155.82l4.927-109.084v-4.669c0-2.892 2.344-5.236 5.236-5.236h6.778c2.892 0 5.236 2.344 5.236 5.236v4.669h.226c2.892 0 5.236 2.344 5.236 5.236v27.244h4.615v-54.131c0-2.892 2.344-5.236 5.236-5.236h4.104v-22.199c5.476-6.925 11.074-6.925 16.794 0v22.199h6.818c2.892 0 5.236 2.344 5.236 5.236v14.707h6.205l13.566-68.852c.484-2.454 2.636-4.223 5.137-4.223h1.302v-3.01c0-2.892 2.344-5.236 5.236-5.236.539 0 1.074.083 1.587.246l20.601 6.555c2.572.819 4.101 3.459 3.53 6.097l-13.39 61.845-8.834 39.278 11.549-11.793c.985-1.006 2.333-1.572 3.741-1.572h3.833a4.84 4.84 0 0 1 4.723 5.89l-15.012 67.457H325v23.347z" fill="#bbb" opacity=".15"/><path d="M222.124 380.278C99.448 380.278 0 348.875 0 296.047s99.448-95.654 222.124-95.654 250.655 42.826 250.655 95.654-127.98 84.231-250.655 84.231zm-94.717-34.767c6.484 5.715 14.658 8.572 24.524 8.572 15.965 0-1.584-9.978 27.882-9.978 19.592 0 7.799-2.537-35.38-7.611h0a1.31 1.31 0 0 0-.66.093l-16.008 6.735a1.31 1.31 0 0 0-.358 2.188zm145.271-87.921c3.966 3.229 8.888 4.844 14.764 4.844 10.026 0-.995-6.266 17.51-6.266 12.285 0 4.921-1.588-22.091-4.765a1.31 1.31 0 0 0-.66.093l-9.204 3.872a1.31 1.31 0 0 0-.319 2.221zm183.065 31.827a1.31 1.31 0 0 0-.342-2.089l-8.699-4.383a1.31 1.31 0 0 0-.772-.127c-25.009 3.524-31.817 5.286-20.424 5.286 17.182 0 6.949 6.968 16.258 6.968 5.591 0 10.25-1.885 13.979-5.654zm-360.507-55.75a1.31 1.31 0 0 0-.196-2.216l-2.512-1.266a1.31 1.31 0 0 0-.772-.127h0c-10.486 1.483-13.315 2.224-8.487 2.224 7.336 0 2.967 2.975 6.941 2.975 1.937 0 3.612-.53 5.026-1.59zm272.507 25.222c2.075 4.027 4.697 6.041 7.865 6.041 5.095 0-.506-6.945 8.898-6.945 6.164 0 2.594-1.716-10.712-5.149h0a1.31 1.31 0 0 0-1.212.303l-4.561 4.186a1.31 1.31 0 0 0-.279 1.564z" fill="#e9e9e9"/><path d="M90.053 173.023L26.3 243.854c-3.345 3.716-8.421 4.945-12.904 3.567a12.39 12.39 0 0 1-8.545-3.191l-.48-.442c-5.102-4.595-5.514-12.455-.92-17.558l-.003-.002 65.202-72.436A93.24 93.24 0 0 1 47.546 94.57c0-51.701 41.9-93.613 93.586-93.613s93.586 41.912 93.586 93.613-41.9 93.613-93.586 93.613c-18.847 0-36.392-5.573-51.08-15.161zm51.08-6.237c39.872 0 72.195-32.332 72.195-72.216s-32.323-72.216-72.195-72.216S68.937 54.687 68.937 94.57s32.323 72.216 72.195 72.216zm9.746-120.441c9.323 1.145 16.45 4.515 21.492 10.418 4.786 5.578 6.72 12.713 5.654 21.389-.799 6.507-3.385 11.913-7.613 16.237-1.67 1.556-6.064 4.833-13.166 9.685-3.542 2.354-6.047 4.688-7.823 7.112-2.284 2.948-3.584 6.311-4.064 10.215l-.408 3.326-11.654-1.431.408-3.326c.586-4.771 1.975-8.857 4.167-12.257 2.572-4.087 8.054-8.991 16.772-14.966 2.615-2.027 4.576-3.548 5.592-4.597 3.357-3.257 5.276-6.837 5.773-10.886.71-5.784-.488-10.48-3.302-14.055-2.924-3.882-7.536-6.062-13.654-6.813-7.284-.894-12.957.757-17.039 5.1-3.702 3.655-5.979 8.953-6.849 16.038l-11.508-1.413c1.243-10.121 5.005-17.878 11.577-23.236 6.608-5.646 15.156-7.826 25.644-6.538zm-12.997 87.787c2.476.304 4.573 1.295 6.108 3.245 1.407 1.787 2.033 3.919 1.731 6.377-.32 2.603-1.442 4.52-3.385 5.895s-4.089 1.993-6.566 1.689-4.409-1.422-5.962-3.227c-1.535-1.95-2.015-4.063-1.713-6.521s1.279-4.393 3.222-5.769c1.961-1.52 4.089-1.993 6.566-1.689z" transform="matrix(.9903 -.139173 .139173 .9903 89.880215 61.502121)" fill="url(#A)"/><path d="M79.648 64.145v.01H55.586v-.09c-4.782-.649-8.466-4.729-8.466-9.666 0-4.669 3.295-8.572 7.698-9.531.745-4.652 4.796-8.208 9.68-8.208 5.258 0 9.549 4.12 9.792 9.294a9.79 9.79 0 0 1 4.912-1.311c5.414 0 9.803 4.368 9.803 9.756 0 5.24-4.15 9.514-9.357 9.746zm414.504 60.23v.006h-15.038v-.056c-2.988-.402-5.291-2.928-5.291-5.984 0-2.89 2.06-5.306 4.811-5.9.466-2.88 2.997-5.081 6.05-5.081 3.286 0 5.968 2.551 6.12 5.753a6.17 6.17 0 0 1 3.07-.812c3.384 0 6.127 2.704 6.127 6.04 0 3.244-2.594 5.89-5.848 6.033zM373.733 17.014l-15.038.006v-.056c-2.988-.402-5.291-2.928-5.291-5.984 0-2.89 2.06-5.306 4.811-5.9.466-2.88 2.997-5.081 6.05-5.081 3.286 0 5.968 2.551 6.12 5.753a6.17 6.17 0 0 1 3.07-.812c3.384 0 6.127 2.704 6.127 6.04 0 3.244-2.594 5.89-5.848 6.033z" fill="#e9e9e9"/><path fill="#bfbfbf" d="M333.104 269.784l-26.012 6.895v15.268l26.012-6.888 26.058 6.888v-15.268z"/><path d="M332.953 310.962l-24.353-6.44c-.951-.246-1.599-1.09-1.599-2.03v-25.88l25.96 6.888v27.462h-.008z" fill="#cdcdcd"/><path d="M326.435 297.373l-21.803-5.798c-1.207-.298-1.856-1.537-1.501-2.679l3.953-12.246 25.96 6.888-4.014 12.44c-.339 1.052-1.486 1.694-2.595 1.395" fill="#e6e6e6"/><path d="M332.953 310.962l24.609-6.395c.951-.246 1.599-1.09 1.599-2.03v-25.872l-26.209 6.843v27.454z" fill="#cdcdcd"/><path d="M339.215 297.283l22.15-5.754c1.154-.298 1.856-1.537 1.501-2.679l-3.704-12.186-26.307 6.843 3.757 12.343a2.16 2.16 0 0 0 2.603 1.433" fill="#dbdbdb"/><path fill="#bfbfbf" d="M291.031 229.243l-7.804 2.134v4.726l7.804-2.132 7.817 2.132v-4.726z"/><path d="M290.986 241.988l-7.306-1.993a.65.65 0 0 1-.48-.628v-8.01l7.788 2.132v8.5h-.002z" fill="#cdcdcd"/><path d="M289.031 237.782l-6.541-1.795c-.362-.092-.557-.476-.45-.829l1.186-3.79 7.788 2.132-1.204 3.85c-.102.326-.446.524-.779.432" fill="#e6e6e6"/><path d="M290.986 241.988l7.383-1.98a.65.65 0 0 0 .48-.628v-8.008l-7.863 2.118v8.498z" fill="#cdcdcd"/><path d="M292.865 237.754l6.645-1.781c.346-.092.557-.476.45-.829l-1.111-3.772-7.892 2.118 1.127 3.82c.104.337.45.536.781.443" fill="#dbdbdb"/><path fill="#bfbfbf" d="M111.038 242.299l-9.538 2.627v5.816l9.538-2.624 9.554 2.624v-5.816z"/><path d="M110.983 257.985l-8.929-2.453a.8.8 0 0 1-.586-.773V244.9l9.519 2.624v10.462h-.003z" fill="#cdcdcd"/><path d="M108.593 252.809l-7.994-2.209c-.443-.114-.68-.586-.55-1.021l1.449-4.665 9.519 2.624-1.472 4.739c-.124.401-.545.645-.952.532" fill="#e6e6e6"/><path d="M110.983 257.985l9.023-2.436a.8.8 0 0 0 .586-.773v-9.856l-9.61 2.607v10.459z" fill="#cdcdcd"/><path d="M113.279 252.775l8.122-2.192c.423-.114.68-.586.55-1.021l-1.358-4.642-9.646 2.607 1.378 4.702c.127.415.55.66.954.546" fill="#dbdbdb"/></svg>