<svg width="55" height="54" viewBox="0 0 55 54" fill="none" xmlns="http://www.w3.org/2000/svg">
<g clip-path="url(#clip0_1_9)">
<mask id="mask0_1_9" style="mask-type:luminance" maskUnits="userSpaceOnUse" x="0" y="0" width="55" height="55">
<path d="M54.1727 0H0V54.1727H54.1727V0Z" fill="white"/>
</mask>
<g mask="url(#mask0_1_9)">
<path d="M54.1727 27.0864C54.1727 19.8513 51.3551 13.0493 46.2393 7.93346C41.1235 2.81751 34.3214 0 27.0864 0C19.8513 0 13.0493 2.81751 7.93333 7.93346C2.81751 13.0493 0 19.8513 0 27.0864C0 34.3214 2.81751 41.1235 7.93346 46.2394C13.0493 51.3552 19.8513 54.1727 27.0864 54.1727C34.3214 54.1727 41.1235 51.3552 46.2393 46.2394C51.3551 41.1235 54.1727 34.3214 54.1727 27.0864ZM49.9309 36.3476C47.8223 34.3523 45.1223 32.9445 42.1799 31.9647C42.3409 30.3707 42.4244 28.7395 42.4244 27.086C42.4244 25.4325 42.3409 23.8016 42.1799 22.2078C45.1222 21.2278 47.8221 19.8199 49.9305 17.8244C51.0949 20.6855 51.7382 23.812 51.7382 27.0864C51.738 30.3604 51.0948 33.4867 49.9309 36.3476ZM14.1827 27.086C14.1827 25.6677 14.2467 24.2684 14.3708 22.8985C18.2001 23.8605 22.2647 24.2135 25.8688 24.2758V29.897C22.2649 29.9594 18.2003 30.3124 14.3708 31.2741C14.2467 29.9041 14.1827 28.5046 14.1827 27.086ZM25.8688 51.6253C23.0091 51.0975 20.3118 48.719 18.1697 44.7947C18.1311 44.7238 18.0936 44.6515 18.0553 44.5798C20.543 42.8162 23.1758 41.7918 25.8686 41.5543V51.6253H25.8688ZM28.3034 41.5545C30.9964 41.792 33.6293 42.816 36.1168 44.5798C36.0786 44.6515 36.0409 44.7239 36.0023 44.795C33.8603 48.7191 31.163 51.0977 28.3034 51.6255L28.3034 41.5545ZM28.3034 2.54665C31.1631 3.07441 33.8604 5.45303 36.0023 9.37717C36.0411 9.44806 36.0785 9.52032 36.1168 9.59196C33.6296 11.3556 30.9968 12.38 28.3036 12.6173L28.3034 2.54665ZM25.8688 12.6172C23.1758 12.3796 20.5429 11.3552 18.0556 9.59155C18.0937 9.52011 18.1313 9.44786 18.1697 9.37717C20.3118 5.45303 23.0091 3.07441 25.8688 2.54665V12.6172ZM28.3034 15.0594C31.3817 14.8307 34.3705 13.7351 37.1749 11.8237C38.2583 14.4021 39.0473 17.3217 39.5094 20.4419C36.2993 21.2869 32.5282 21.763 28.3034 21.8393V15.0594ZM38.0485 8.04668C37.1023 6.34202 36.0474 4.88952 34.9088 3.70745C36.7082 4.31097 38.415 5.11742 40.0034 6.09846C39.3658 6.80322 38.7134 7.45227 38.0485 8.04668ZM16.1239 8.04634C15.4591 7.452 14.8068 6.80315 14.1694 6.09867C15.7575 5.11774 17.4641 4.31149 19.2632 3.70787C18.1246 4.88962 17.07 6.34202 16.1239 8.04634ZM25.8688 15.0594V21.8393C21.644 21.7628 17.8728 21.2869 14.6626 20.4419C15.1248 17.3215 15.9136 14.4019 16.9971 11.8235C19.8018 13.735 22.7905 14.8307 25.8688 15.0594ZM25.8688 32.3333V39.1122C22.7907 39.3409 19.802 40.4367 16.9972 42.3481C15.9139 39.7698 15.1249 36.8506 14.6628 33.7306C17.8729 32.8856 21.6441 32.4098 25.8688 32.3333ZM16.1242 46.1244C17.0704 47.8288 18.1245 49.2828 19.2629 50.465C17.4634 49.8611 15.7563 49.0547 14.168 48.0734C14.8061 47.3682 15.4588 46.719 16.1242 46.1244ZM38.048 46.124C38.7135 46.7188 39.3665 47.3681 40.0045 48.0734C38.4159 49.0548 36.7087 49.8613 34.9088 50.4652C36.0475 49.2829 37.1018 47.8287 38.048 46.124ZM28.3034 39.1121V32.3332C32.5281 32.4097 36.2993 32.8855 39.5093 33.7304C39.0471 36.8504 38.2583 39.7696 37.175 42.3477C34.3703 40.4364 31.3815 39.3409 28.3034 39.1121ZM28.3034 29.897V24.2758C31.9074 24.2137 35.972 23.8605 39.8013 22.8987C39.9253 24.2684 39.9894 25.6677 39.9894 27.086C39.9894 28.5047 39.9254 29.904 39.8013 31.2741C35.9719 30.3123 31.9075 29.9592 28.3034 29.897ZM48.83 15.4812C48.822 15.4894 48.8134 15.4965 48.8056 15.5048C47.1709 17.2596 44.8172 18.6753 41.8602 19.7214C41.3242 16.3038 40.4147 13.1085 39.1688 10.3018C40.1493 9.46912 41.1021 8.53031 42.0238 7.48979C44.8244 9.62975 47.1545 12.3546 48.83 15.4812ZM12.1488 7.48992C13.0703 8.53031 14.0231 9.46899 15.0034 10.3015C13.7574 13.1082 12.8479 16.3035 12.3119 19.7212C9.35509 18.6751 7.00149 17.2595 5.36702 15.5047C5.35919 15.4964 5.35072 15.4893 5.34279 15.4812C7.01821 12.3546 9.34839 9.62981 12.1488 7.48992ZM4.24229 17.8244C6.35049 19.8198 9.05044 21.2276 11.9924 22.2076C11.8313 23.8014 11.748 25.4325 11.748 27.0858C11.748 28.7395 11.8313 30.3707 11.9924 31.9648C9.05023 32.9446 6.35027 34.3523 4.24187 36.3474C3.0779 33.4867 2.43471 30.3604 2.43471 27.0864C2.43471 23.812 3.07801 20.6857 4.24229 17.8244ZM5.34226 38.6906C5.3503 38.6825 5.35898 38.6753 5.36681 38.6667C7.00149 36.9123 9.35516 35.497 12.312 34.451C12.848 37.8682 13.7576 41.0633 15.0031 43.8698C14.0225 44.7025 13.0693 45.6413 12.1475 46.6818C9.34744 44.542 7.0176 41.8171 5.34226 38.6906ZM42.025 46.6819C41.103 45.6413 40.1499 44.7023 39.1691 43.8696C40.4149 41.0631 41.3242 37.8682 41.8601 34.4509C44.817 35.4967 47.1709 36.9122 48.8057 38.6667C48.8136 38.6753 48.8222 38.6823 48.8305 38.6906C47.1551 41.8172 44.8252 44.542 42.025 46.6819Z" fill="#009EFF"/>
</g>
</g>
<defs>
<clipPath id="clip0_1_9">
<rect width="54.1727" height="54.1727" fill="white"/>
</clipPath>
</defs>
</svg>
